{"title":"How Do You Know 2010 SWESUB 720p BluRay x264-ASPiRE","uid":6592908,"size":5912730953,"categoryP":"video","categoryS":"hd___movies","magnet":"?xt=urn:btih:e8637fcac49f79194f741248731cb51b44064958&amp;dn=How+Do+You+Know+2010+SWESUB+720p+BluRay+x264-ASPiRE&amp;tr=udp%3A%2F%2Ftracker.openbittorrent.com%3A80&amp;tr=udp%3A%2F%2Fopen.demonii.com%3A1337&amp;tr=udp%3A%2F%2Ftracker.coppersurfer.tk%3A6969&amp;tr=udp%3A%2F%2Fexodus.desync.com%3A6969","seeders":2,"leechers":0,"uploader":"xASPiREx","files":-1,"time":1312898581,"description":"How Do You Know 2010 SWESUB 720p BluRay x264-ASPiRE\n &lt;a href=&quot;\nhttp://www.imdb.com/title/tt1341188/&quot; rel=&quot;nofollow&quot; target=&quot;_NEW&quot;&gt;\nhttp://www.imdb.com/title/tt1341188/&lt;/a&gt;\n\nHandling:\n\nNÃƒÂ¤r Lisa plÃƒÂ¶tsligt fÃƒÂ¶rlorar allt inleder hon en romans med baseballstjÃƒÂ¤rnan \noch kvinnokarlen Matty. Innan det hinner bli allvar mellan dem trÃƒÂ¤ffar Lisa \nÃƒÂ¤ven George - en affÃƒÂ¤rsman som fÃƒÂ¶rsÃƒÂ¶ker fÃƒÂ¥ ordning pÃƒÂ¥ sina problem med sin \nfar och rÃƒÂ¤ttvisan. Precis nÃƒÂ¤r allting hÃƒÂ¥ller pÃƒÂ¥ att rasa samman sÃƒÂ¥ hÃƒÂ¤nder det \novÃƒÂ¤ntade...\n\niNFO:\n\nGenre: Komedi, Drama, Romantik\nRegi: James L. Brooks\nMedverkande: Reese Witherspoon, Paul Rudd, Owen Wilson, Jack Nicholson\nProduktionsland: USA\nSprÃƒÂ¥k: Engelska\nText: Svenska\n\nGeneral:\nFormat                           : Matroska\nFile size                        : 5.51 GiB\nDuration                         : 2h 0mn\nOverall bit rate                 : 6 529 Kbps\n\nVideo:\nID                               : 1\nFormat                           : AVC\nFormat/Info                      : Advanced Video Codec\nFormat profile                   : &lt;a class=&quot;__cf_email__&quot; href=&quot;/cdn-cgi/l/email-protection&quot; data-cfemail=&quot;8ac2e3ede2cac6bea4bb&quot;&gt;[email&amp;#160;protected]&lt;/a&gt;&lt;script cf-hash='f9e31' type=&quot;text/javascript&quot;&gt;\n/* &lt;![CDATA[ */!function(){try{var t=&quot;currentScript&quot;in document?document.currentScript:function(){for(var t=document.getElementsByTagName(&quot;script&quot;),e=t.length;e--;)if(t[e].getAttribute(&quot;cf-hash&quot;))return t[e]}();if(t&amp;&amp;t.previousSibling){var e,r,n,i,c=t.previousSibling,a=c.getAttribute(&quot;data-cfemail&quot;);if(a){for(e=&quot;&quot;,r=parseInt(a.substr(0,2),16),n=2;a.length-n;n+=2)i=parseInt(a.substr(n,2),16)^r,e+=String.fromCharCode(i);e=document.createTextNode(e),c.parentNode.replaceChild(e,c)}}}catch(u){}}();/* ]]&gt; */&lt;/script&gt;\nFormat settings, CABAC           : Yes\nFormat settings, ReFrames        : 9 frames\nFormat settings, GOP             : M=4, N=24\nMuxing mode                      : Header stripping\nCodec ID                         : V_MPEG4/ISO/AVC\nDuration                         : 2h 0mn\nBit rate                         : 5 021 Kbps\nWidth                            : 1 280 pixels\nHeight                           : 692 pixels\nDisplay aspect ratio             : 1.850\nFrame rate                       : 23.976 fps\nColor space                      : YUV\nChroma subsampling               : 4:2:0\nBit depth                        : 8 bits\nScan type                        : Progressive\nBits/(Pixel*Frame)               : 0.236\nStream size                      : 4.12 GiB (75%)\nLanguage                         : English\n\nAudio:\nID                               : 2\nFormat                           : DTS\nFormat/Info                      : Digital Theater Systems\nMuxing mode                      : Header stripping\nCodec ID                         : A_DTS\nDuration                         : 2h 0mn\nBit rate mode                    : Constant\nBit rate                         : 1 510 Kbps\nChannel(s)                       : 6 channels\nChannel positions                : Front: L C R, Side: L R, LFE\nSampling rate                    : 48.0 KHz\nBit depth                        : 24 bits\nCompression mode                 : Lossy\nStream size                      : 1.27 GiB (23%)\nTitle                            : English DTS-HDMA core 5.1 1509Kbps\nLanguage                         : English\n\nEnjoy, ASPiRE","torrent":{"xt":"urn:btih:e8637fcac49f79194f741248731cb51b44064958","amp;dn":"How+Do+You+Know+2010+SWESUB+720p+BluRay+x264-ASPiRE","amp;tr":["udp%3A%2F%2Ftracker.openbittorrent.com%3A80","udp%3A%2F%2Fopen.demonii.com%3A1337","udp%3A%2F%2Ftracker.coppersurfer.tk%3A6969","udp%3A%2F%2Fexodus.desync.com%3A6969"],"infoHash":"e8637fcac49f79194f741248731cb51b44064958","infoHashBuffer":{"type":"Buffer","data":[232,99,127,202,196,159,121,25,79,116,18,72,115,28,181,27,68,6,73,88]},"announce":[],"urlList":[]}}